# xmcd
#
# Track frame offsets:
#	150
#	14799
#	34320
#	49416
#	69603
#	85035
#	99632
#	120276
#	137078
#	147930
#	162872
#	166065
#	183113
#	199690
#	220927
#	239145
#	258241
#	276204
#	295022
#	309505
#
# Disc length: 4376 seconds
#
# Revision: 1
# Processed by: cddbd v1.5.2PL0 Copyright (c) Steve Scherf et al.
# Submitted via: audiograbber 1.83.01
#
DISCID=26111614
DTITLE=The Emotions - Don't Ask My Neighbors - Disc 2
DYEAR=2019
DGENRE=Soul
TTITLE0=Smile
TTITLE1=Love Is Right On
TTITLE2=Time Is Passing By
TTITLE3=There'll Never Be Another Moment
TTITLE4=Turn It Out
TTITLE5=New Affair
TTITLE6=I Wouldn't Lie
TTITLE7=My Everything
TTITLE8=Spirit Of Summer
TTITLE9=Whole Lot Of Shakin'
TTITLE10=Music Box
TTITLE11=What's The Name Of Your Love
TTITLE12=Cause I Love You
TTITLE13=Come Into My World
TTITLE14=On and On
TTITLE15=I Should Be Dancing
TTITLE16=Where Is Your Love?
TTITLE17=The Movie
TTITLE18=Layed Back
TTITLE19=Yes. I Am
EXTD=
EXTT0=
EXTT1=
EXTT2=
EXTT3=
EXTT4=
EXTT5=
EXTT6=
EXTT7=
EXTT8=
EXTT9=
EXTT10=
EXTT11=
EXTT12=
EXTT13=
EXTT14=
EXTT15=
EXTT16=
EXTT17=
EXTT18=
EXTT19=
PLAYORDER=
